<?xml version="1.0" encoding="UTF-8" standalone="no"?><!DOCTYPE svg PUBLIC "-//W3C//DTD SVG 1.1//EN" "http://www.w3.org/Graphics/SVG/1.1/DTD/svg11.dtd"><svg width="100%" height="100%" viewBox="0 0 800 600" version="1.1" xmlns="http://www.w3.org/2000/svg" xmlns:xlink="http://www.w3.org/1999/xlink" xml:space="preserve" xmlns:serif="http://www.serif.com/" style="fill-rule:evenodd;clip-rule:evenodd;stroke-linejoin:round;stroke-miterlimit:2;"><g><path d="M132.232,367.632l-23.979,-0l-6.191,21.102l-50.824,0l48.047,-127.836l43.077,0l48.048,127.836l-51.9,0l-6.278,-21.102Zm-3.755,-27.265l-8.023,-25.264l-7.561,25.344l15.584,-0.08Z" style="fill-rule:nonzero;"/><path d="M203.054,260.898l50.21,0l-0,80.486l50.942,-0l0,47.35l-101.152,0l-0,-127.836Z" style="fill-rule:nonzero;"/><rect x="628.38" y="355.575" width="102.031" height="35.157" style="fill:#ebebeb;"/><rect x="628.38" y="355.575" width="102.031" height="35.157"/><path d="M380.877,256.456c38,-0 68.852,30.852 68.852,68.852c-0,38.001 -30.852,68.853 -68.852,68.853c-38.001,-0 -68.853,-30.852 -68.853,-68.853c0,-38 30.852,-68.852 68.853,-68.852Zm-0,47c12.06,-0 21.852,9.792 21.852,21.852c-0,12.061 -9.792,21.853 -21.852,21.853c-12.061,-0 -21.853,-9.792 -21.853,-21.853c0,-12.06 9.792,-21.852 21.853,-21.852Z"/><path d="M679.91,205.839c38,0 68.852,30.852 68.852,68.853c0,38 -30.852,68.852 -68.852,68.852c-38.001,0 -68.853,-30.852 -68.853,-68.852c0,-38.001 30.852,-68.853 68.853,-68.853Zm-0,47c12.06,0 21.852,9.792 21.852,21.853c0,12.06 -9.792,21.852 -21.852,21.852c-12.061,0 -21.853,-9.792 -21.853,-21.852c0,-12.061 9.792,-21.853 21.853,-21.853Z"/><path d="M604.86,341.962c-8.346,28.624 -34.802,49.566 -66.11,49.566c-38.001,0 -68.853,-30.851 -68.853,-68.852c0,-38.001 30.852,-68.852 68.853,-68.852c32.54,-0 59.838,22.622 67.011,52.982l-53.899,-0l-0,35.156l52.998,0Z"/></g></svg>